<?xml version="1.0" standalone="no"?>
<!DOCTYPE svg PUBLIC "-//W3C//DTD SVG 20010904//EN"
 "http://www.w3.org/TR/2001/REC-SVG-20010904/DTD/svg10.dtd">
<svg version="1.0" xmlns="http://www.w3.org/2000/svg"
 width="512.000000pt" height="512.000000pt" viewBox="0 0 512.000000 512.000000"
 preserveAspectRatio="xMidYMid meet">
<metadata>
Created by potrace 1.16, written by Peter Selinger 2001-2019
</metadata>
<g transform="translate(0.000000,512.000000) scale(0.100000,-0.100000)"
fill="#000000" stroke="none">
<path d="M2816 4434 c-98 -13 -180 -25 -182 -26 -1 -2 52 -41 119 -88 67 -46
213 -148 325 -227 l203 -144 212 27 c117 14 213 27 215 29 2 1 -141 105 -318
229 -285 201 -325 226 -358 225 -20 -1 -117 -12 -216 -25z"/>
<path d="M1857 4317 c-92 -11 -166 -24 -165 -29 6 -17 633 -448 652 -448 38 0
381 41 398 48 14 5 -61 62 -297 227 -365 256 -309 236 -588 202z"/>
<path d="M1050 4219 c-261 -32 -270 -2 76 -243 164 -115 311 -218 325 -227 25
-17 33 -17 235 8 115 14 211 27 213 29 6 5 41 -20 -321 232 -242 170 -323 222
-345 221 -15 -1 -98 -10 -183 -20z"/>
<path d="M922 3728 l3 -213 199 -5 199 -5 -201 -187 c-111 -103 -211 -193
-222 -200 -20 -13 -20 -23 -20 -795 l0 -783 671 0 671 0 -5 43 c-6 57 17 189
48 276 23 64 25 82 23 203 l-3 133 -632 3 c-411 1 -633 6 -633 12 0 7 252 10
726 10 l726 0 96 90 c93 88 196 157 295 199 160 69 391 96 567 68 110 -18 251
-56 297 -80 18 -9 34 -17 38 -17 3 0 5 142 5 315 l0 315 -306 0 c-181 0 -304
4 -302 9 2 5 130 126 285 269 154 143 279 263 275 266 -3 3 -98 6 -212 6
l-206 0 -297 -275 -298 -275 -257 0 -257 0 79 73 c252 229 490 454 494 465 3
9 -43 12 -205 12 l-209 0 -297 -275 -297 -275 -210 0 c-116 0 -210 2 -210 4 0
2 128 121 285 266 157 144 285 266 285 271 0 5 -92 9 -211 9 l-211 0 -62 -60
c-35 -33 -66 -60 -69 -60 -4 0 -7 42 -7 93 l0 94 -109 106 -110 107 -105 0
-106 0 2 -212z m2668 -1023 c0 -13 -149 -15 -1285 -15 -1136 0 -1285 2 -1285
15 0 13 149 15 1285 15 1136 0 1285 -2 1285 -15z"/>
</g>
</svg>
